<svg width="121" height="43" viewBox="0 0 121 43" fill="none" xmlns="http://www.w3.org/2000/svg">
<g clip-path="url(#clip0)">
<path d="M46.6014 26.583H0V43H46.6014V26.583Z" fill="#fff"/>
<path d="M0.377319 38.8956H46.224V42.621H0.377319V40.5373V38.8956Z" fill="#0C1C49"/>
<path d="M0.377319 27.0249H46.224V30.7503H0.377319V28.6666V27.0249Z" fill="#0C1C49"/>
<path d="M23.2692 30.7502H46.224V38.8956H23.2692V30.7502Z" fill="#D3072A"/>
<path d="M0.377319 30.7502H23.3321V38.8956H0.377319V30.7502Z" fill="#fff"/>
<path d="M73.3924 39.0851H65.7828V36.1174H72.0088V32.7709H65.7828V30.2452H73.3924V26.9618H61.7578V42.558H73.3924V39.0851Z" fill="#0C1C49"/>
<path d="M55.2173 38.0749C55.2173 39.464 54.5255 39.464 54.211 39.464C53.3935 39.464 53.079 38.7694 52.9532 38.2643L52.8903 37.8854L48.7396 38.58L48.8654 39.0851C49.4943 41.5477 51.2552 42.7474 54.2739 42.7474C57.7958 42.7474 59.5567 41.0426 59.5567 37.5066V26.9618H55.3431V38.0749H55.2173Z" fill="#0C1C49"/>
<path d="M79.9959 26.9618L74.7131 42.558H78.6123L79.6814 39.3377H84.7126L85.7188 42.558H89.8067L84.5239 26.9618H79.9959ZM80.7505 36.0543L82.197 31.508L83.6435 36.0543H80.7505Z" fill="#0C1C49"/>
<path d="M114.774 33.213C114.271 33.0235 113.831 32.8341 113.39 32.7078C111.629 32.0764 110.875 31.7607 110.875 31.0661C110.875 30.0558 112.195 29.9927 112.573 29.9927C113.768 29.9927 114.522 30.4347 115.151 31.6344L115.34 31.9501L118.988 30.7504L118.799 30.3084C117.856 28.0353 115.78 26.8356 112.824 26.8356C109.365 26.8356 106.976 28.6667 106.976 31.3187C106.976 32.8972 107.73 34.1601 109.114 34.9178C110.12 35.4861 111.315 35.8649 112.573 36.3069L113.139 36.4964C114.963 37.0646 115.277 37.5066 115.277 38.1381C115.277 39.1483 114.145 39.5272 113.076 39.5272C111.755 39.5272 110.875 38.9589 110.12 37.5066L109.931 37.1278L106.284 38.5169L106.472 38.9589C107.605 41.4215 109.931 42.7475 113.139 42.7475C116.912 42.7475 119.176 40.9163 119.176 37.9486C119.176 35.3598 117.667 34.2864 114.774 33.213Z" fill="#0C1C49"/>
<path d="M100.938 35.2966C100.938 35.486 100.938 35.6754 100.938 35.8649C100.687 35.4229 100.435 34.9809 100.121 34.5389L95.2152 26.9618H91.1902V42.558H95.0265V33.9706C95.0265 33.7812 95.0265 33.5917 95.0265 33.4023C95.341 33.9075 95.5925 34.4126 95.8441 34.7915L101.127 42.558H104.712V26.9618H100.875V35.2966H100.938Z" fill="#0C1C49"/>
<path d="M0.440247 5.05139H6.98079V23.5521H12.8295V5.05139H19.3701V0.252563H0.440247V5.05139Z" fill="#0C1C49"/>
<path d="M31.3191 0C24.4641 0 20.3763 4.48311 20.3763 11.9339C20.3763 19.3216 24.5899 23.8678 31.3191 23.8678C38.0483 23.8678 42.2619 19.2584 42.2619 11.9339C42.2619 4.48311 38.1741 0 31.3191 0ZM31.3191 19.0059C27.9859 19.0059 26.2879 16.6065 26.2879 11.9339C26.2879 7.19824 27.9859 4.79883 31.3191 4.79883C34.6523 4.79883 36.3503 7.19824 36.3503 11.9339C36.3503 16.6696 34.6523 19.0059 31.3191 19.0059Z" fill="#0C1C49"/>
<path d="M115.088 0.252563L110.749 8.77679L106.284 0.252563H100.058L107.667 14.3965V23.5521H113.516V14.3333L121 0.252563H115.088Z" fill="#0C1C49"/>
<path d="M62.2609 0.252563L58.4875 11.9971C58.1731 12.8811 57.8586 13.9545 57.4813 15.091C57.2298 14.0808 56.9153 13.0073 56.538 11.9339L52.8275 0.252563H45.1549V23.5521H50.3119V7.76651C50.4376 8.14537 50.5634 8.52422 50.6892 8.90308L55.2173 23.5521H59.4938L64.2105 8.90308C64.3363 8.52422 64.4621 8.14537 64.5879 7.76651V23.489H69.7448V0.252563H62.2609Z" fill="#0C1C49"/>
<path d="M90.5613 0.252563L86.788 11.9971C86.4735 12.8811 86.1591 13.9545 85.7817 15.091C85.5302 14.0808 85.2157 13.0073 84.8384 11.9339L81.1279 0.252563H73.4553V23.5521H78.6123V7.76651C78.7381 8.14537 78.8638 8.52422 78.9896 8.90308L83.5177 23.5521H87.7942L92.5109 8.90308C92.6367 8.52422 92.7625 8.14537 92.8883 7.76651V23.489H98.0452V0.252563H90.5613Z" fill="#0C1C49"/>
</g>
<defs>
<clipPath id="clip0">
<rect width="121" height="43" fill="#fff"/>
</clipPath>
</defs>
</svg>
