<svg width="50" height="50" viewBox="0 0 50 50" fill="none" xmlns="http://www.w3.org/2000/svg">
<path d="M25 50C38.8071 50 50 38.8071 50 25C50 11.1929 38.8071 0 25 0C11.1929 0 0 11.1929 0 25C0 38.8071 11.1929 50 25 50Z" fill="#0C1C49"/>
<path d="M27.1667 22C27.1667 23 27.1667 24 27.1667 25C27.1667 25.1667 27.3333 25.5 27.3333 25.6667C27.6667 26.1667 28 26.1667 28.3333 25.8334C28.8333 25.3334 29.3333 24.8334 29.6667 24.1667C30.6667 22.6667 31.5 21 32.3333 19.3334C32.3333 19.3334 32.3333 19.3334 32.3333 19.1667C32.6667 18.5 32.8333 18.5 33.5 18.5C35.1667 18.5 36.6667 18.5 38.3333 18.5C38.6667 18.5 38.8333 18.5 39.1667 18.6667C39.5 18.8334 39.6667 19 39.6667 19.5C39.5 20 39.3333 20.3334 39.1667 20.8334C38.5 22.1667 37.5 23.3334 36.5 24.6667C36 25.3334 35.5 26 35 26.6667C34.5 27.3334 34.5 28 35.1667 28.5C36 29.3334 36.8333 30 37.5 30.8334C38.1667 31.5 38.6667 32.1667 39.1667 32.8334C39.3333 33 39.3333 33.3334 39.5 33.5C39.6667 34.1667 39.3333 34.5 38.6667 34.6667C38.5 34.6667 38.3333 34.6667 38.1667 34.6667C36.8333 34.6667 35.3333 34.6667 34 34.6667C33.3333 34.6667 32.6667 34.3334 32.1667 34C31.5 33.3334 30.8333 32.6667 30.1667 32C29.8333 31.6667 29.6667 31.5 29.3333 31.1667C29.1667 31 29.1667 31 29 31C28.6667 30.8334 28.3333 30.8334 28 31.1667C27.5 31.5 27.3333 32 27.3333 32.5C27.3333 33 27.3333 33.3334 27.1667 33.8334C27.1667 34.3334 26.8333 34.8334 26.3333 34.8334C24.3333 35 22.3333 35 20.5 34C18.8333 33.1667 17.3333 32 16.1667 30.5C13.6667 27.3334 11.6667 23.6667 9.99999 20C9.83332 19.8334 9.83332 19.5 9.66666 19.3334C9.49999 18.8334 9.66666 18.6667 10.1667 18.5C10.3333 18.5 10.5 18.5 10.8333 18.5C12.1667 18.5 13.5 18.5 14.6667 18.5C15.3333 18.5 15.8333 18.8334 16 19.3334C16.6667 21 17.5 22.5 18.3333 24.1667C18.6667 24.8334 19.1667 25.3334 19.6667 25.8334C20 26 20.1667 26.1667 20.5 26C20.6667 26 20.6667 25.8334 20.8333 25.8334C21.1667 25.5 21.1667 25 21.1667 24.5C21.3333 23.3334 21.3333 22.3334 21.1667 21.1667C21.1667 20.8334 21 20.5 21 20C20.8333 19.3334 20.3333 19 19.8333 18.8334C19.6667 18.8334 19.6667 18.6667 19.5 18.6667C19.5 18.5 19.6667 18.3334 19.6667 18.3334C20 18 20.3333 17.8334 20.8333 17.6667C22.3333 17.5 24 17.5 25.5 17.6667C25.6667 17.6667 25.8333 17.6667 26 17.8334C26.6667 18 27 18.3334 27 19.1667C27 19.8334 27 20.5 27 21.1667C27.1667 21.5 27.1667 21.6667 27.1667 22Z" fill="#fff"/>
</svg>
